<svg width="47" height="48" viewBox="0 0 47 48" fill="none" xmlns="http://www.w3.org/2000/svg">
<path opacity="0.4" d="M33.6112 47.3327H13.3891C5.48072 47.3327 0.167969 41.7861 0.167969 33.5293V14.4717C0.167969 6.21495 5.48072 0.666016 13.3891 0.666016H33.6135C41.5219 0.666016 46.8346 6.21495 46.8346 14.4717V33.5293C46.8346 41.7861 41.5219 47.3327 33.6112 47.3327" fill="#04009A"/>
<path fill-rule="evenodd" clip-rule="evenodd" d="M21.7412 16.2401C21.7412 19.4368 19.1395 22.0385 15.9428 22.0385C12.7438 22.0385 10.1445 19.4368 10.1445 16.2401C10.1445 13.0435 12.7438 10.4395 15.9428 10.4395C19.1395 10.4395 21.7412 13.0435 21.7412 16.2401ZM40.7704 28.8695C41.3141 29.3969 41.7038 29.9989 41.9604 30.6405C42.7374 32.5819 42.3338 34.9152 41.5031 36.8379C40.5184 39.1269 38.6331 40.8559 36.2578 41.6119C35.2031 41.9502 34.0971 42.0949 32.9934 42.0949H13.4378C11.4918 42.0949 9.76976 41.6422 8.3581 40.7929C7.47376 40.2609 7.31743 39.0359 7.9731 38.2379C9.06976 36.9079 10.1524 35.5732 11.2444 34.2269C13.3258 31.6509 14.7281 30.9042 16.2868 31.5599C16.9191 31.8305 17.5538 32.2389 18.2071 32.6682C19.9478 33.8209 22.3674 35.4029 25.5548 33.6855C27.7334 32.4942 28.9981 30.4556 30.0989 28.6813L30.1211 28.6455C30.1952 28.5268 30.2686 28.4081 30.3419 28.2897C30.7162 27.6849 31.0848 27.0892 31.5024 26.5409C32.0204 25.8619 33.9431 23.7385 36.4281 25.2505C38.0124 26.2025 39.3448 27.4905 40.7704 28.8695Z" fill="#04009A"/>
</svg>
