<svg width="146" height="30" viewBox="0 0 146 30" fill="none" xmlns="http://www.w3.org/2000/svg">
<path d="M25.8006 29.9979H5.01717C4.2161 29.9979 3.48072 29.8347 2.81104 29.5041C2.13924 29.1756 1.58188 28.7327 1.13896 28.1753C0.696039 27.618 0.373911 26.9758 0.174702 26.2468C-0.024507 25.5178 -0.0541751 24.7676 0.0899334 23.9962L4.89002 0H13.8883L9.60322 21.5124L4.58909 23.0129H21.4731C21.702 23.0129 21.9075 22.9344 22.094 22.7776C22.2805 22.6208 22.4013 22.4279 22.4585 22.1991L26.9153 0.00212131H35.9136L30.7278 25.9713C30.4989 27.1708 29.9204 28.1435 28.9922 28.8853C28.0639 29.627 27.0001 29.9979 25.8006 29.9979Z" fill="#04009A"/>
<path d="M37.6289 29.9977L43.6285 0.00195312H53.6122L49.3271 21.5144L44.0142 23.0148H67.6268L66.2133 29.9998H37.6289V29.9977Z" fill="#04009A"/>
<path d="M101.651 0.00212131C102.422 0.00212131 103.143 0.167419 103.814 0.495902C104.486 0.824384 105.05 1.26731 105.508 1.82467C105.963 2.38203 106.294 3.0178 106.493 3.73199C106.692 4.44617 106.707 5.19003 106.536 5.95931L102.549 25.9713C102.32 27.1708 101.742 28.1435 100.814 28.8853C99.8853 29.6291 98.8215 30 97.622 30H75.8531C75.052 30 74.3167 29.8368 73.647 29.5062C72.9752 29.1777 72.4178 28.7348 71.9749 28.1774C71.532 27.6201 71.2099 26.978 71.0106 26.2489C70.8114 25.5199 70.7818 24.7697 70.9259 23.9983L74.9546 4.02868C75.1834 2.82919 75.7535 1.85858 76.669 1.11472C77.5824 0.372989 78.6399 0 79.8394 0H101.651V0.00212131ZM78.038 6.98503L83.0522 8.48545L80.3946 21.8134C80.3374 22.127 80.4095 22.4068 80.6087 22.6483C80.8079 22.8921 81.0643 23.0129 81.3801 23.0129H99.4212L94.4495 21.5124L97.107 8.18452C97.1642 7.87087 97.0922 7.59113 96.893 7.34954C96.6937 7.10794 96.4352 6.98503 96.1215 6.98503H78.038Z" fill="#04009A"/>
<path d="M145.87 0.00195312L130.357 29.9977H115.36L109.875 0.00195312H119.388L123.589 21.5144L118.574 23.0148H123.887L135.372 0.00407444H145.87V0.00195312Z" fill="#04009A"/>
<path d="M25.8006 29.9979H5.01717C4.2161 29.9979 3.48072 29.8347 2.81104 29.5041C2.13924 29.1756 1.58188 28.7327 1.13896 28.1753C0.696039 27.618 0.373911 26.9758 0.174702 26.2468C-0.024507 25.5178 -0.0541751 24.7676 0.0899334 23.9962L4.89002 0H13.8883L9.60322 21.5124L4.58909 23.0129H21.4731C21.702 23.0129 21.9075 22.9344 22.094 22.7776C22.2805 22.6208 22.4013 22.4279 22.4585 22.1991L26.9153 0.00212131H35.9136L30.7278 25.9713C30.4989 27.1708 29.9204 28.1435 28.9922 28.8853C28.0639 29.627 27.0001 29.9979 25.8006 29.9979Z" fill="#04009A"/>
<path d="M37.6289 29.9977L43.6285 0.00195312H53.6122L49.3271 21.5144L44.0142 23.0148H67.6268L66.2133 29.9998H37.6289V29.9977Z" fill="#04009A"/>
<path d="M101.651 0.00212131C102.422 0.00212131 103.143 0.167419 103.814 0.495902C104.486 0.824384 105.05 1.26731 105.508 1.82467C105.963 2.38203 106.294 3.0178 106.493 3.73199C106.692 4.44617 106.707 5.19003 106.536 5.95931L102.549 25.9713C102.32 27.1708 101.742 28.1435 100.814 28.8853C99.8853 29.6291 98.8215 30 97.622 30H75.8531C75.052 30 74.3167 29.8368 73.647 29.5062C72.9752 29.1777 72.4178 28.7348 71.9749 28.1774C71.532 27.6201 71.2099 26.978 71.0106 26.2489C70.8114 25.5199 70.7818 24.7697 70.9259 23.9983L74.9546 4.02868C75.1834 2.82919 75.7535 1.85858 76.669 1.11472C77.5824 0.372989 78.6399 0 79.8394 0H101.651V0.00212131ZM78.038 6.98503L83.0522 8.48545L80.3946 21.8134C80.3374 22.127 80.4095 22.4068 80.6087 22.6483C80.8079 22.8921 81.0643 23.0129 81.3801 23.0129H99.4212L94.4495 21.5124L97.107 8.18452C97.1642 7.87087 97.0922 7.59113 96.893 7.34954C96.6937 7.10794 96.4352 6.98503 96.1215 6.98503H78.038Z" fill="#04009A"/>
<path d="M145.87 0.00195312L130.357 29.9977H115.36L109.875 0.00195312H119.388L123.589 21.5144L118.574 23.0148H123.887L135.372 0.00407444H145.87V0.00195312Z" fill="#04009A"/>
<path d="M43.6308 1.53205V0.00195312H38.5234L43.6308 1.53205Z" fill="#04009A"/>
<path d="M110.225 1.53205V0.00195312H105.117L110.225 1.53205Z" fill="#04009A"/>
<path d="M135.518 1.53205V0.00195312H130.41L135.518 1.53205Z" fill="#04009A"/>
<path d="M26.9394 1.53205V0.00195312H21.832L26.9394 1.53205Z" fill="#04009A"/>
<path d="M5.10738 1.53205V0.00195312H0L5.10738 1.53205Z" fill="#04009A"/>
</svg>
